<?xml version="1.0" encoding="UTF-8"?>
<svg id="_图层_1" xmlns="http://www.w3.org/2000/svg" version="1.1" viewBox="0 0 141.73 141.73">
  <!-- Generator: Adobe Illustrator 30.0.0, SVG Export Plug-In . SVG Version: 2.1.1 Build 123)  -->
  <defs>
    <style>
      .st0 {
        fill: #fff;
      }
    </style>
  </defs>
  <circle cx="71.06" cy="70.99" r="70.24"/>
  <g>
    <path class="st0" d="M.79,78.91v22.08c18.24,8.87,39.14,7.46,56.28-.83,5.69-2.75,11.37-6.4,16.09-10.53.62-.54-.28-.26-.62-.05s-6.18,3.54-10.98,5.17c-14.54,4.92-30.39,4.24-43.97-2.93-5.68-3-12.88-8.15-16.79-12.91h0Z"/>
    <path class="st0" d="M140.94,108.87v-26.83c-7.01-3.4-35.2-2.38-42.15-.72-4.89,1.17-9.64,2.87-14.13,5.03-5.69,2.75-11.4,6.23-16.12,10.35-.62.54.42.5.76.3s6.06-3.41,10.87-5.04c14.54-4.92,30.51-3.56,44.08,3.6,5.68,3,12.76,8.53,16.67,13.3h0Z"/>
  </g>
  <g>
    <path class="st0" d="M68.73,35.66c-.03.94-1.05,2.32-3.07,4.16-3.71,3.42-7.45,5.12-11.21,5.12-1.05,0-1.91-.06-2.58-.18-.85-.15-2.21-.77-4.07-1.89-5.95-3.5-9.78-5.26-11.48-5.26-.88,0-1.32.19-1.32.57,0,.18.04.45.11.83.08.38.11.65.11.83,0,2.17-.78,4.23-2.34,6.22-1.65,2.11-3.53,3.15-5.66,3.15l-1.72-.48-.66-1.53c0-1.78.85-3.72,2.54-5.82,1.7-2.11,3.41-3.47,5.15-4.11-.58-.24-.98-.35-1.18-.35-2.72,0-5.77,1.9-9.15,5.69-2.51,2.8-4.67,5.91-6.48,9.33-2.13,3.97-3.19,7.14-3.19,9.5,0,3.04,1.14,4.55,3.41,4.55s4.37-1.23,6.39-3.68c1.9-2.33,2.85-4.66,2.85-6.96,0-.35-.13-.7-.4-1.05-.27-.35-.55-.52-.88-.52-.49,0-1.24.52-2.23,1.58l-.09.04c-.38.58-.85,1.84-1.4,3.77-.7.32-1.44.76-2.23,1.32l-2.1,1.48h-.09c-.06-.35-.09-.56-.09-.65,0-2.39.62-4.51,1.88-6.35,1.4-2.1,3.23-3.15,5.51-3.15s3.41,1.07,3.41,3.19c0,3.27-1.3,6.36-3.9,9.29-2.65,3.01-5.59,4.51-8.79,4.51-4.64,0-6.96-2.06-6.96-6.17,0-3.74,1.44-7.9,4.34-12.48,2.54-4.03,5.49-7.41,8.85-10.12,3.98-3.21,7.68-4.82,11.12-4.82.41,0,.98.13,1.71.4s1.26.52,1.58.78c1.69-.76,3.49-1.14,5.39-1.14v-.04c1.75.06,3.68.62,5.78,1.7.46.24,2.12,1.21,4.95,2.92,1.72,1.05,3.01,1.57,3.86,1.57h.83c2.66,0,5.05-.57,7.18-1.71,1.14-.61,3.14-2.07,6-4.34h.18v.04l.13.27h0ZM33.6,39.92c0-.15-.03-.4-.09-.74s-.07-.62-.04-.83c-3.07,1.29-5.29,3.7-6.66,7.23-.21.52-.31.92-.31,1.19,0,.7.39,1.05,1.15,1.05,1.5,0,2.9-.96,4.19-2.89,1.18-1.75,1.77-3.42,1.77-4.99h0Z"/>
    <path class="st0" d="M42.8,52.1c-.44,1.69-1.5,3.83-3.19,6.42-1.84,2.82-3.01,4.9-3.5,6.24l.4.27c1.17-.38,2.22-1.25,3.13-2.61.92-1.35,1.46-2.08,1.64-2.17h.18c.12.15.18.31.18.48,0,1.2-1.02,2.84-3.07,4.92-2.05,2.09-3.67,3.12-4.87,3.12-.94,0-1.57-.24-1.93-.7-.09-.12-.34-.76-.74-1.92-.99,1.75-2.35,2.62-4.07,2.62-.79,0-1.47-.34-2.06-1.01s-.88-1.4-.88-2.19c0-2.22,1.48-5.04,4.45-8.47s5.53-5.14,7.68-5.14c.27,0,.67.15,1.23.45.55.31.98.47,1.27.5.18-.09.28-.28.31-.58.33-.25.94-.38,1.84-.38s1.54.04,2.02.13h0ZM37.81,54.15c-.09-.38-.35-.56-.79-.56-.41,0-.85.19-1.32.56v-.04c-1.43,1.2-2.8,2.76-4.11,4.69-1.52,2.24-2.27,4.13-2.27,5.65,0,.61.25.92.74.92.67,0,2.08-1.65,4.2-4.95,1.9-2.95,3.09-5.03,3.55-6.26Z"/>
    <path class="st0" d="M50.64,60.99c0,1.32-1.04,3-3.11,5.04-2.08,2.05-3.78,3.07-5.12,3.07s-2.11-.98-2.11-2.94c0-1.05.4-2.26,1.19-3.64l1.97-3.42c.23-.52.99-2.27,2.27-5.26h4.65c-2.36,4.14-4.11,7.88-5.26,11.21l.44.31c1.11-.38,2.05-1.17,2.81-2.36.82-1.34,1.47-2.15,1.97-2.41h.18c.09.09.13.22.13.4h0ZM52.79,48.29c0,1.02-.18,1.7-.52,2.04-.36.34-1.04.5-2.07.5-1.17,0-1.76-.3-1.76-.88v-1.93c0-.38.37-.75,1.1-1.12.73-.37,1.32-.54,1.76-.54,1,0,1.49.64,1.49,1.93Z"/>
    <path class="st0" d="M139.98,77.68c-2.02-1.57-4.87-2.36-8.54-2.36-1.49,0-2.69.18-3.59.52-.73.29-1.74.93-3.03,1.93-.38-.39-1.08-.99-2.1-1.84-1.93-1.4-4.47-2.1-7.62-2.1-1.11,0-2.32.13-3.64.4-2.33.46-4.51.99-6.53,1.57l-5.39,1.53c-2.08.49-3.93.74-5.56.74-.76,0-1.94-.15-3.55-.44-1.96-.35-4.22-2.06-6.78-5.12-1.23-1.46-1.84-3.8-1.84-7.01s.77-6.94,2.31-10.91c-.85.3-2.02.63-3.5,1.02-1.48,4.14-3.59,7.43-6.31,9.85-3.1,2.72-6.68,4.07-10.78,4.07-2.19,0-4.04-.41-5.57-1.23-1.9-1.02-2.85-2.54-2.85-4.56,0-1.32.41-2.43,1.23-3.35s1.87-1.37,3.15-1.37c.88,0,1.59.27,2.15.79.55.52.83,1.23.83,2.1s-.44,1.56-1.32,1.97c-1.45.41-2.22.62-2.27.65-.99.38-1.48.86-1.48,1.44,0,.85.64,1.51,1.93,2.02,1.05.41,2.06.61,3.02.61,2.66,0,4.96-1.23,6.92-3.68,1.2-1.51,2.49-3.92,3.9-7.18-2.28,0-4.15-.46-5.61-1.4-1.72-1.08-2.59-2.7-2.59-4.87,0-2.98,1.28-5.79,3.84-8.45,2.55-2.66,5.31-3.99,8.26-3.99.33,0,2.12.15,5.39.44-10.25,2.02-15.38,6.18-15.38,12.48,0,1.49.6,2.72,1.8,3.68,2.19.67,3.56,1.01,4.11,1.01.35,0,.65-.06.92-.18,1.37-2.57,2.94-4.96,4.69-7.19,5.26-6.71,8.54-10.2,9.86-10.42l.27.13.13.27c-.09.15-.27.38-.52.7-3.18,3.92-5.62,8.82-7.32,14.71l3.77-1.1c2.51-3.98,5.14-7.45,7.88-10.43,4.08-4.41,7.55-6.62,10.38-6.62,1.05,0,1.92.3,2.61.88s1.03,1.38,1.03,2.41c0,2.45-2.03,5.04-6.08,7.75-2.83,1.9-5.98,3.5-9.45,4.82-.73,1.02-1.47,3.11-2.23,6.26-.7,2.92-1.05,5.12-1.05,6.62,0,2.69.37,4.62,1.09,5.78,1.52,2.42,3.19,3.84,5.03,4.25.93.21,1.87.31,2.8.31,1.23,0,3.46-.44,6.69-1.32,2.57-.7,6.74-1.63,12.53-2.8,3.01-.62,5.22-.93,6.66-.93,6.8,0,12.57,2.36,17.31,7.1v.02ZM104.45,39.47c0-1.29-.61-1.93-1.84-1.93-1.93,0-4.07,1.8-6.44,5.39-1.49,2.27-2.92,4.99-4.29,8.15,2.68-1.11,5.27-2.64,7.75-4.6,3.21-2.54,4.82-4.88,4.82-7.01Z"/>
    <path class="st0" d="M107.86,52.15l-3.68,6.22c-.44.7-1.08,1.74-1.93,3.11-.7,1.14-1.24,2.23-1.62,3.28l.4.27c1.17-.38,2.22-1.25,3.13-2.61.92-1.35,1.46-2.08,1.64-2.17h.18c.12.15.18.31.18.48,0,1.2-1.02,2.84-3.07,4.92s-3.67,3.12-4.87,3.12c-.94,0-1.58-.24-1.93-.7-.09-.12-.34-.76-.74-1.92-.99,1.75-2.35,2.62-4.07,2.62-.79,0-1.47-.34-2.06-1.01-.58-.67-.88-1.4-.88-2.19,0-.58.15-1.2.44-1.84l5.08-11.2,5.03-.4c-1.17,1.55-2.3,3.38-3.42,5.52-1.34,2.6-2.02,4.58-2.02,5.95,0,.35.07.7.22,1.05.18.46.41.7.7.7.79,0,2.32-1.88,4.6-5.65,1.72-2.83,3.03-5.22,3.9-7.18l4.78-.4h0Z"/>
    <path class="st0" d="M115.69,60.99c0,1.32-1.04,3-3.11,5.04-2.08,2.05-3.78,3.07-5.12,3.07s-2.11-.98-2.11-2.94c0-1.05.4-2.26,1.19-3.64l1.97-3.42c.24-.52.99-2.27,2.27-5.26h4.65c-2.36,4.14-4.11,7.88-5.26,11.21l.44.31c1.11-.38,2.05-1.17,2.8-2.36.82-1.34,1.47-2.15,1.97-2.41h.18c.09.09.13.22.13.4h0ZM117.84,48.29c0,1.02-.18,1.7-.52,2.04-.36.34-1.04.5-2.07.5-1.17,0-1.76-.3-1.76-.88v-1.93c0-.38.37-.75,1.1-1.12.73-.37,1.32-.54,1.76-.54,1,0,1.49.64,1.49,1.93Z"/>
  </g>
</svg>